<svg xmlns="http://www.w3.org/2000/svg" width="13.895" height="16.422" viewBox="0 0 13.895 16.422">
  <path id="Icon_ionic-md-notifications-outline" data-name="Icon ionic-md-notifications-outline" d="M12.612,6.236a5.707,5.707,0,0,1,.944.177,4.023,4.023,0,0,1,3.066,3.942v5.038l.368.37.307.309H7.848l.307-.309.368-.37V10.354a4.023,4.023,0,0,1,3.066-3.942,6.988,6.988,0,0,1,.944-.177m.039-2.861a1.207,1.207,0,0,0-1.226,1.232v.575A5.322,5.322,0,0,0,7.26,10.354V14.87L5.625,16.512v.821h13.9v-.821L17.886,14.87V10.354A5.322,5.322,0,0,0,13.8,5.181V4.607a1.207,1.207,0,0,0-1.226-1.232Zm1.635,14.78H10.938a1.635,1.635,0,1,0,3.269,0Z" transform="translate(-5.625 -3.375)"/>
</svg>
